<svg width="24" height="24" viewBox="0 0 24 24" fill="none" xmlns="http://www.w3.org/2000/svg">
<path d="M23.9229 7.08396C23.9095 6.07625 23.7205 5.07856 23.3645 4.13551C23.0558 3.34006 22.5843 2.61765 21.98 2.01443C21.3758 1.41122 20.6522 0.94046 19.8554 0.632244C18.923 0.28279 17.9378 0.093835 16.942 0.0734231C15.66 0.0162105 15.2535 0.000244141 11.9989 0.000244141C8.74436 0.000244141 8.32721 0.00024423 7.05444 0.0734231C6.0591 0.093985 5.07445 0.282938 4.1424 0.632244C3.3455 0.940246 2.62177 1.41093 2.01752 2.01417C1.41328 2.61741 0.941811 3.33994 0.633296 4.13551C0.28256 5.06573 0.0937002 6.04896 0.0748776 7.04271C0.0175698 8.32401 0.000244141 8.72982 0.000244141 11.979C0.000244141 15.2281 0.000244131 15.6432 0.0748776 16.9152C0.0948687 17.9104 0.282785 18.8924 0.633296 19.8251C0.942329 20.6204 1.41414 21.3426 2.0186 21.9456C2.62305 22.5486 3.34684 23.0191 4.14374 23.327C5.07323 23.6905 6.05805 23.893 7.05578 23.9257C8.33921 23.9829 8.74569 24.0002 12.0002 24.0002C15.2548 24.0002 15.6719 24.0002 16.9447 23.9257C17.9405 23.9062 18.9256 23.7176 19.8581 23.3682C20.6547 23.0597 21.3781 22.5888 21.9823 21.9856C22.5864 21.3825 23.0581 20.6602 23.3672 19.865C23.7177 18.9336 23.9056 17.9517 23.9256 16.9551C23.9829 15.6752 24.0002 15.2693 24.0002 12.0189C23.9976 8.76973 23.9976 8.35727 23.9229 7.08396ZM11.9909 18.1233C8.5871 18.1233 5.82965 15.3705 5.82965 11.9723C5.82965 8.57414 8.5871 5.82129 11.9909 5.82129C13.625 5.82129 15.1921 6.46934 16.3476 7.62288C17.503 8.77642 18.1522 10.341 18.1522 11.9723C18.1522 13.6037 17.503 15.1682 16.3476 16.3217C15.1921 17.4753 13.625 18.1233 11.9909 18.1233ZM18.3974 7.02807C18.2087 7.02825 18.0218 6.99127 17.8474 6.91925C17.673 6.84723 17.5146 6.74159 17.3811 6.60837C17.2477 6.47514 17.1418 6.31696 17.0697 6.14286C16.9976 5.96876 16.9605 5.78217 16.9607 5.59377C16.9607 5.4055 16.9979 5.21908 17.07 5.04514C17.1422 4.8712 17.248 4.71316 17.3813 4.58003C17.5147 4.44691 17.673 4.34131 17.8472 4.26926C18.0214 4.19721 18.2082 4.16013 18.3967 4.16013C18.5853 4.16013 18.7721 4.19721 18.9463 4.26926C19.1205 4.34131 19.2788 4.44691 19.4122 4.58003C19.5455 4.71316 19.6513 4.8712 19.7235 5.04514C19.7956 5.21908 19.8328 5.4055 19.8328 5.59377C19.8328 6.38676 19.1904 7.02807 18.3974 7.02807Z" fill="#07059A"/>
<path d="M11.9909 15.9679C14.2013 15.9679 15.9931 14.179 15.9931 11.9723C15.9931 9.76561 14.2013 7.97674 11.9909 7.97674C9.78055 7.97674 7.98869 9.76561 7.98869 11.9723C7.98869 14.179 9.78055 15.9679 11.9909 15.9679Z" fill="#07059A"/>
</svg>
