<svg width="157" height="84" viewBox="0 0 157 84" fill="none" xmlns="http://www.w3.org/2000/svg">
<g filter="url(#filter0_dd_4552_2765)">
<path d="M59.7344 26.7074C59.1167 25.4268 57.9455 24.5995 56.1806 24.5995C55.6389 24.6089 55.1066 24.741 54.6247 24.9858C54.1429 25.2306 53.7244 25.5815 53.4015 26.0114L53.3371 26.0889V21.0698C53.3371 21.0408 53.3254 21.013 53.3047 20.9925C53.2839 20.972 53.2557 20.9604 53.2264 20.9604H50.731C50.702 20.961 50.6744 20.9727 50.6541 20.9932C50.6337 21.0136 50.6224 21.0412 50.6224 21.0698V35.467C50.6224 35.4955 50.6338 35.5228 50.6542 35.5429C50.6746 35.5631 50.7022 35.5744 50.731 35.5744H53.4035C53.4325 35.5744 53.4603 35.5632 53.4811 35.5431C53.5017 35.523 53.5136 35.4957 53.5142 35.467V29.3283C53.5142 28.1352 54.3191 27.29 55.6071 27.29C57.0157 27.29 57.3719 28.4355 57.3719 29.6027V35.467C57.3719 35.4955 57.3834 35.5228 57.4037 35.5429C57.4241 35.5631 57.4518 35.5744 57.4806 35.5744H60.1469C60.176 35.5744 60.2039 35.5632 60.2246 35.5431C60.2453 35.523 60.2572 35.4957 60.2577 35.467V29.2528C60.2577 29.04 60.2577 28.8312 60.2295 28.6284C60.1837 27.9637 60.016 27.3128 59.7344 26.7074Z" fill="#5A31F4"/>
<path d="M46.3901 28.8412C46.3901 28.8412 45.0298 28.525 44.5287 28.3977C44.0276 28.2705 43.1522 28 43.1522 27.3458C43.1522 26.6915 43.8585 26.4827 44.575 26.4827C45.2914 26.4827 46.0883 26.6538 46.1507 27.4392C46.1532 27.4676 46.1664 27.4939 46.1876 27.5131C46.2089 27.5322 46.2366 27.5427 46.2654 27.5427L48.8996 27.5327C48.9151 27.5327 48.9304 27.5296 48.9446 27.5235C48.9589 27.5175 48.9717 27.5085 48.9822 27.4973C48.9928 27.4861 49.001 27.4729 49.0061 27.4585C49.0113 27.444 49.0134 27.4287 49.0123 27.4134C48.8493 24.8998 46.6175 24.001 44.5589 24.001C42.1178 24.001 40.3328 25.5919 40.3328 27.3458C40.3328 28.6264 40.6991 29.8275 43.5788 30.6627C44.0839 30.8079 44.7702 30.9968 45.3699 31.1618C46.0903 31.3607 46.4787 31.661 46.4787 32.1343C46.4787 32.6831 45.6737 33.0649 44.8829 33.0649C43.7378 33.0649 42.9248 32.6453 42.8584 31.8916C42.8549 31.8641 42.8414 31.8387 42.8202 31.8203C42.799 31.802 42.7718 31.792 42.7437 31.7922L40.1155 31.8041C40.1001 31.8041 40.0848 31.8072 40.0707 31.8131C40.0565 31.8191 40.0436 31.8278 40.0329 31.8387C40.0222 31.8497 40.0139 31.8627 40.0084 31.8769C40.0028 31.8911 40.0003 31.9063 40.0008 31.9215C40.1215 34.2938 42.4398 35.5725 44.6011 35.5725C47.821 35.5725 49.2759 33.7828 49.2759 32.1064C49.2799 31.3189 49.0968 29.5252 46.3901 28.8412Z" fill="#5A31F4"/>
<path d="M80.2787 24.5955C78.9406 24.5955 77.8196 25.3273 77.0971 26.2103V24.699C77.0971 24.6708 77.0859 24.6438 77.0659 24.6237C77.0463 24.6036 77.019 24.5921 76.9904 24.5916H74.4912C74.4624 24.5916 74.4346 24.6029 74.4142 24.623C74.3939 24.6432 74.3823 24.6705 74.3823 24.699V38.8178C74.383 38.8458 74.3948 38.8728 74.4151 38.8924C74.4355 38.9121 74.4628 38.9232 74.4912 38.9232H77.1656C77.1938 38.9232 77.2209 38.9121 77.2409 38.8924C77.2609 38.8726 77.2721 38.8456 77.2721 38.8178V34.1765H77.3125C77.7369 34.8167 78.8982 35.5844 80.4157 35.5844C83.2689 35.5844 85.6478 33.2458 85.6478 30.086C85.6499 27.0534 83.2832 24.5955 80.2787 24.5955ZM80.0312 32.8938C79.4681 32.9077 78.913 32.7553 78.4378 32.4562C77.9627 32.1571 77.5881 31.7249 77.3624 31.2147C77.1369 30.7044 77.0702 30.1393 77.1712 29.5914C77.2718 29.0436 77.5357 28.5379 77.9286 28.1388C78.3217 27.7397 78.8261 27.4654 79.3776 27.3508C79.9289 27.2363 80.5024 27.2867 81.0247 27.4957C81.5471 27.7046 81.9944 28.0626 82.3101 28.524C82.6255 28.9854 82.7947 29.5291 82.7963 30.086C82.802 30.45 82.7349 30.8115 82.5991 31.1499C82.4633 31.4882 82.261 31.7967 82.0041 32.0576C81.7473 32.3185 81.4408 32.5267 81.1019 32.6702C80.7635 32.8137 80.3996 32.8897 80.0312 32.8938Z" fill="#5A31F4"/>
<path d="M66.468 23.9753C63.9747 23.9753 62.731 24.8124 61.7327 25.4826L61.7026 25.5025C61.6512 25.5373 61.615 25.59 61.6012 25.6501C61.5873 25.7102 61.5969 25.7733 61.6282 25.8266L62.6143 27.5049C62.6327 27.5364 62.658 27.5634 62.6882 27.584C62.7185 27.6046 62.753 27.6184 62.7894 27.6243C62.8249 27.6306 62.8613 27.6291 62.8961 27.6198C62.9309 27.6105 62.9632 27.5937 62.9906 27.5706L63.069 27.507C63.5821 27.0814 64.4052 26.5127 66.3976 26.3575C67.5063 26.2701 68.4643 26.5564 69.1707 27.2087C69.9474 27.9166 70.4124 29.06 70.4124 30.2671C70.4124 32.4883 69.0881 33.8843 66.961 33.9121C65.2081 33.9022 64.0309 32.9994 64.0309 31.665C64.0309 30.9571 64.3549 30.4958 64.9869 30.0344C65.0351 30.0003 65.0692 29.9501 65.0829 29.8931C65.0966 29.8361 65.089 29.7761 65.0613 29.7242L64.1759 28.0697C64.1595 28.0401 64.1374 28.014 64.1108 27.9928C64.0842 27.9717 64.0537 27.9559 64.0209 27.9464C63.9873 27.9366 63.9522 27.9338 63.9176 27.9382C63.8828 27.9427 63.8494 27.9543 63.8196 27.9723C62.8256 28.5549 61.606 29.6208 61.6724 31.669C61.7529 34.276 63.9465 36.2666 66.7979 36.3481H67.1361C70.5248 36.2387 72.9719 33.753 72.9719 30.3824C72.9719 27.2882 70.6898 23.9753 66.468 23.9753Z" fill="#5A31F4"/>
<path d="M96.1864 25.5661H94.4878C94.4481 25.5666 94.41 25.5825 94.3818 25.6103C94.3534 25.6382 94.3373 25.6758 94.3372 25.7153V29.237C94.3373 29.2762 94.3536 29.3136 94.382 29.3411C94.4101 29.3687 94.4481 29.3841 94.4878 29.3841H96.1864C97.2207 29.3841 97.9835 28.5788 97.9835 27.4751C97.9835 26.3715 97.2207 25.5661 96.1864 25.5661Z" fill="#5A31F4"/>
<path d="M101.405 31.7962C101.405 32.3072 101.842 32.5916 102.602 32.5916C103.637 32.5916 104.248 32.0388 104.248 31.0584V30.7761L102.699 30.8556C101.882 30.8954 101.405 31.2314 101.405 31.7962Z" fill="#5A31F4"/>
<path d="M113.982 20.9924H91.1616C90.7874 20.9924 90.4165 21.0653 90.0709 21.2069C89.7249 21.3485 89.4107 21.5561 89.1463 21.8178C88.8815 22.0795 88.6716 22.3901 88.5285 22.732C88.3853 23.0738 88.3119 23.4402 88.3123 23.8102V36.1551C88.3123 36.9021 88.6124 37.6186 89.1468 38.1469C89.6812 38.6753 90.406 38.9724 91.1616 38.9729H113.982C114.357 38.974 114.728 38.9021 115.075 38.7612C115.422 38.6203 115.737 38.4132 116.002 38.1519C116.268 37.8905 116.479 37.58 116.623 37.2381C116.767 36.8961 116.841 36.5295 116.842 36.1591V23.8141C116.842 23.443 116.769 23.0754 116.626 22.7324C116.482 22.3895 116.271 22.0779 116.006 21.8157C115.74 21.5534 115.424 21.3457 115.077 21.2044C114.73 21.0631 114.358 20.991 113.982 20.9924ZM96.273 30.7701H94.4781C94.4381 30.7701 94.3999 30.7858 94.3714 30.8138C94.3432 30.8418 94.3271 30.8797 94.3271 30.9193V33.4447C94.3271 33.4843 94.3112 33.5222 94.283 33.5502C94.2547 33.5782 94.2165 33.5939 94.1763 33.5939H92.9123C92.8727 33.5934 92.8344 33.5775 92.8062 33.5496C92.778 33.5218 92.7623 33.4841 92.7616 33.4447V24.3351C92.7616 24.2956 92.7775 24.2576 92.806 24.2297C92.8342 24.2017 92.8724 24.186 92.9123 24.186H96.273C98.1769 24.186 99.5392 25.5561 99.5392 27.4791C99.5392 29.402 98.1869 30.7741 96.2834 30.7741L96.273 30.7701ZM105.731 33.4428C105.732 33.4625 105.728 33.4821 105.72 33.5004C105.713 33.5188 105.702 33.5355 105.688 33.5495C105.674 33.5636 105.657 33.5747 105.639 33.5824C105.62 33.59 105.6 33.5939 105.58 33.5939H104.387C104.367 33.5939 104.347 33.59 104.329 33.5824C104.31 33.5747 104.294 33.5636 104.28 33.5495C104.266 33.5355 104.255 33.5188 104.247 33.5004C104.24 33.4821 104.236 33.4625 104.236 33.4428V33.1703C104.238 33.1464 104.232 33.1225 104.219 33.1022C104.207 33.0818 104.188 33.0661 104.165 33.0574C104.142 33.0487 104.117 33.0474 104.094 33.0538C104.071 33.0602 104.05 33.0738 104.035 33.0928C103.679 33.4766 103.099 33.755 102.175 33.755C100.815 33.755 99.9155 33.055 99.9155 31.8459C99.9025 31.5511 99.964 31.2578 100.095 30.9924C100.225 30.7271 100.421 30.4983 100.664 30.3267C101.155 29.9628 101.916 29.7739 103.045 29.7301L104.242 29.6903V29.3443C104.242 28.6463 103.767 28.35 103.004 28.35C102.242 28.35 101.761 28.6165 101.648 29.052C101.639 29.0828 101.62 29.1097 101.594 29.1284C101.568 29.1472 101.536 29.1567 101.503 29.1554H100.322C100.3 29.1559 100.279 29.1518 100.259 29.1432C100.239 29.1346 100.221 29.1218 100.207 29.1057C100.192 29.0895 100.182 29.0705 100.176 29.0499C100.169 29.0293 100.168 29.0076 100.171 28.9864C100.348 27.9523 101.214 27.1668 103.059 27.1668C105.019 27.1668 105.725 28.0677 105.725 29.7878L105.731 33.4428ZM113.165 27.5327L110.509 34.5345C109.905 36.1611 108.849 36.5787 107.691 36.5787C107.474 36.584 107.256 36.5579 107.045 36.5012C107.013 36.4925 106.984 36.4733 106.963 36.4467C106.942 36.4201 106.931 36.3876 106.931 36.354V35.2901C106.931 35.2679 106.936 35.2459 106.945 35.2257C106.955 35.2055 106.968 35.1877 106.986 35.1734C107.003 35.1592 107.023 35.1489 107.045 35.1433C107.067 35.1377 107.09 35.1369 107.112 35.141C107.294 35.1752 107.48 35.1925 107.665 35.1927C107.985 35.2086 108.301 35.1178 108.563 34.935C108.825 34.7522 109.017 34.4879 109.108 34.1845L109.187 33.9399C109.199 33.9072 109.199 33.8712 109.187 33.8385L106.703 27.5347C106.696 27.5122 106.694 27.4882 106.697 27.4647C106.701 27.4412 106.71 27.4189 106.724 27.3995C106.738 27.3801 106.756 27.3643 106.777 27.3532C106.799 27.3422 106.822 27.3362 106.846 27.3359H108.054C108.085 27.3362 108.115 27.3456 108.14 27.363C108.166 27.3803 108.185 27.4048 108.197 27.4333L109.883 31.8798C109.894 31.9088 109.914 31.9338 109.94 31.9515C109.966 31.9691 109.997 31.9786 110.028 31.9786C110.059 31.9786 110.09 31.9691 110.116 31.9515C110.142 31.9338 110.162 31.9088 110.173 31.8798L111.636 27.4453C111.646 27.415 111.665 27.3887 111.691 27.3701C111.717 27.3515 111.748 27.3416 111.78 27.3418H113.018C113.042 27.3417 113.066 27.3472 113.087 27.3578C113.108 27.3684 113.127 27.3837 113.142 27.4027C113.156 27.4216 113.165 27.4436 113.169 27.4669C113.174 27.4902 113.172 27.5141 113.165 27.5367V27.5327Z" fill="#5A31F4"/>
</g>
<defs>
<filter id="filter0_dd_4552_2765" x="0" y="-2" width="157" height="104" filterUnits="userSpaceOnUse" color-interpolation-filters="sRGB">
<feFlood flood-opacity="0" result="BackgroundImageFix"/>
<feColorMatrix in="SourceAlpha" type="matrix" values="0 0 0 0 0 0 0 0 0 0 0 0 0 0 0 0 0 0 127 0" result="hardAlpha"/>
<feOffset dy="2"/>
<feGaussianBlur stdDeviation="10"/>
<feColorMatrix type="matrix" values="0 0 0 0 0.717647 0 0 0 0 0.717647 0 0 0 0 0.717647 0 0 0 0.08 0"/>
<feBlend mode="normal" in2="BackgroundImageFix" result="effect1_dropShadow_4552_2765"/>
<feColorMatrix in="SourceAlpha" type="matrix" values="0 0 0 0 0 0 0 0 0 0 0 0 0 0 0 0 0 0 127 0" result="hardAlpha"/>
<feOffset dy="20"/>
<feGaussianBlur stdDeviation="20"/>
<feColorMatrix type="matrix" values="0 0 0 0 0.717647 0 0 0 0 0.717647 0 0 0 0 0.717647 0 0 0 0.08 0"/>
<feBlend mode="normal" in2="effect1_dropShadow_4552_2765" result="effect2_dropShadow_4552_2765"/>
<feBlend mode="normal" in="SourceGraphic" in2="effect2_dropShadow_4552_2765" result="shape"/>
</filter>
</defs>
</svg>
