<svg width="28" height="28" viewBox="0 0 28 28" fill="none" xmlns="http://www.w3.org/2000/svg">
<path d="M14 2C7.376 2 2 7.376 2 14C2 20.624 7.376 26 14 26C20.624 26 26 20.624 26 14C26 7.376 20.624 2 14 2ZM19.568 10.16C19.388 12.056 18.608 16.664 18.212 18.788C18.044 19.688 17.708 19.988 17.396 20.024C16.7 20.084 16.172 19.568 15.5 19.124C14.444 18.428 13.844 17.996 12.824 17.324C11.636 16.544 12.404 16.112 13.088 15.416C13.268 15.236 16.34 12.44 16.4 12.188C16.4083 12.1498 16.4072 12.1102 16.3968 12.0726C16.3863 12.0349 16.3668 12.0004 16.34 11.972C16.268 11.912 16.172 11.936 16.088 11.948C15.98 11.972 14.3 13.088 11.024 15.296C10.544 15.62 10.112 15.788 9.728 15.776C9.296 15.764 8.48 15.536 7.868 15.332C7.112 15.092 6.524 14.96 6.572 14.54C6.596 14.324 6.896 14.108 7.46 13.88C10.964 12.356 13.292 11.348 14.456 10.868C17.792 9.476 18.476 9.236 18.932 9.236C19.028 9.236 19.256 9.26 19.4 9.38C19.52 9.476 19.556 9.608 19.568 9.704C19.556 9.776 19.58 9.992 19.568 10.16Z" fill="#07059A"/>
</svg>
